<?xml version="1.0" standalone="no"?><!DOCTYPE svg PUBLIC "-//W3C//DTD SVG 1.1//EN" "http://www.w3.org/Graphics/SVG/1.1/DTD/svg11.dtd"><svg t="1534229387156" class="icon" style="" viewBox="0 0 1024 1024" version="1.1" xmlns="http://www.w3.org/2000/svg" p-id="4495" xmlns:xlink="http://www.w3.org/1999/xlink" width="81" height="81"><defs><style type="text/css"></style></defs><path d="M753.59 340.7c-22.39-113-122-198.18-241.61-198.18s-219.23 85.2-241.62 198.18a191.58 191.58 0 0 0-141.74 185.18c0.11 105.81 86 191.5 191.78 191.39h383.16a191.58 191.58 0 0 0 185.18-141.75c27.52-102.16-32.99-207.3-135.15-234.82z m-50 321.83h-383.2a136.84 136.84 0 0 1 0-273.69c0-105.84 85.78-191.58 191.61-191.58S703.56 283 703.56 388.84a136.84 136.84 0 0 1 0 273.69z" fill="#0057D9" p-id="4496"></path><path d="M306.71 881.48c-22.66 0-41.05-19.6-41.05-43.79q0-24.22 41.05-65.69 41.05 41.46 41.05 65.69c0 24.19-18.39 43.79-41.05 43.79zM443.55 881.48c-22.66 0-41.05-19.6-41.05-43.79q0-24.22 41.05-65.69 41.05 41.46 41.05 65.69c0.01 24.19-18.38 43.79-41.05 43.79zM580.4 881.48c-22.66 0-41.05-19.6-41.05-43.79q0-24.22 41.05-65.69 41.05 41.46 41.05 65.69c0 24.19-18.39 43.79-41.05 43.79zM717.24 881.48c-22.66 0-41.05-19.6-41.05-43.79q0-24.22 41.05-65.69 41.05 41.46 41.05 65.69c0.01 24.19-18.39 43.79-41.05 43.79z" fill="#FFCC00" p-id="4497"></path></svg>