<?xml version="1.0" standalone="no"?><!DOCTYPE svg PUBLIC "-//W3C//DTD SVG 1.1//EN" "http://www.w3.org/Graphics/SVG/1.1/DTD/svg11.dtd"><svg t="1534229362392" class="icon" style="" viewBox="0 0 1024 1024" version="1.1" xmlns="http://www.w3.org/2000/svg" p-id="3779" xmlns:xlink="http://www.w3.org/1999/xlink" width="81" height="81"><defs><style type="text/css"></style></defs><path d="M512 292.53c-121.21 0-219.47 98.26-219.47 219.47S390.79 731.47 512 731.47 731.47 633.21 731.47 512 633.21 292.53 512 292.53z m3.92 388a164.6 164.6 0 1 1 164.6-164.6 164.6 164.6 0 0 1-164.6 164.6zM512 127.93a27.43 27.43 0 0 1 27.43 27.43v82.3a27.43 27.43 0 1 1-54.87 0v-82.3A27.43 27.43 0 0 1 512 127.93zM783.6 240.4a27.43 27.43 0 0 1 0 38.8l-58.21 58.19a27.43 27.43 0 1 1-39.47-38.12l0.67-0.67 58.19-58.21a27.43 27.43 0 0 1 38.79 0zM896.07 512a27.43 27.43 0 0 1-27.43 27.43h-82.3a27.43 27.43 0 1 1 0-54.87h82.3A27.43 27.43 0 0 1 896.07 512zM783.6 783.6a27.43 27.43 0 0 1-38.8 0l-58.19-58.21a27.43 27.43 0 0 1 38.79-38.79l58.19 58.19a27.43 27.43 0 0 1 0 38.79zM512 896.07a27.43 27.43 0 0 1-27.43-27.43v-82.3a27.43 27.43 0 1 1 54.87 0v82.3A27.43 27.43 0 0 1 512 896.07zM240.4 783.6a27.43 27.43 0 0 1 0-38.8l58.21-58.19a27.43 27.43 0 0 1 39.47 38.12l-0.67 0.67-58.19 58.2a27.43 27.43 0 0 1-38.79 0zM127.93 512a27.43 27.43 0 0 1 27.43-27.43h82.3a27.43 27.43 0 1 1 0 54.87h-82.3A27.43 27.43 0 0 1 127.93 512zM240.4 240.4a27.43 27.43 0 0 1 38.8 0l58.19 58.21a27.43 27.43 0 0 1-38.12 39.47l-0.67-0.67-58.2-58.19a27.43 27.43 0 0 1 0-38.79z" fill="#FFCC00" p-id="3780"></path></svg>