<?xml version="1.0" standalone="no"?><!DOCTYPE svg PUBLIC "-//W3C//DTD SVG 1.1//EN" "http://www.w3.org/Graphics/SVG/1.1/DTD/svg11.dtd"><svg t="1534229421288" class="icon" style="" viewBox="0 0 1024 1024" version="1.1" xmlns="http://www.w3.org/2000/svg" p-id="5257" xmlns:xlink="http://www.w3.org/1999/xlink" width="81" height="81"><defs><style type="text/css"></style></defs><path d="M236.22 733.76c-95.61-46.2-135.66-161.17-89.46-256.76a192.28 192.28 0 0 1 122.88-102C292.1 261.73 392.1 176.26 512 176.26s220 85.47 242.41 198.81C856.91 402.85 917.47 508.46 889.69 611a192.28 192.28 0 0 1-101.78 122.71h-0.05a27.46 27.46 0 0 1-23.56-49.61 137.28 137.28 0 0 0-60.07-260.76c0-106.15-86-192.2-192.2-192.2s-192.2 86-192.2 192.2a137.28 137.28 0 0 0-58.92 261.36 27.47 27.47 0 1 1-24.71 49.06z" fill="#0057D9" p-id="5258"></path><path d="M365.87 709.49A27.46 27.46 0 0 1 379.15 746l-23.2 49.75a27.46 27.46 0 1 1-49.78-23.2l23.23-49.78a27.46 27.46 0 0 1 36.48-13.29zM702.22 709.49A27.46 27.46 0 0 1 715.53 746l-23.2 49.75a27.47 27.47 0 1 1-49.78-23.23l23.2-49.75a27.46 27.46 0 0 1 36.48-13.31zM499.53 693.48h64.58a27.46 27.46 0 0 1 28.34 38.85L546 831.87a27.47 27.47 0 1 1-49.81-23.2l28.12-60.27h-67.83a27.46 27.46 0 0 1-24.57-39.81l46.4-99.53a27.46 27.46 0 1 1 49.78 23.2l-28.55 61.23z" fill="#FFCC00" p-id="5259"></path></svg>